<svg width="168" height="200" viewBox="0 0 168 200" fill="none" xmlns="http://www.w3.org/2000/svg">
<path d="M82 1.19999C82.5333 0.399996 83 -2.38419e-06 83.4 -2.38419e-06C84.0667 -2.38419e-06 85.8 3.4 88.6 10.2C97.9333 32.2 103.867 46 106.4 51.6C115.067 71.6 119.667 82.3333 120.2 83.8C120.333 84.3333 119.933 84.8667 119 85.4C118.067 85.8 115.867 86.8 112.4 88.4C107.733 90.2667 105 91.2 104.2 91.2H104C103.333 90.5333 97.2 76.4 85.6 48.8C84.9333 47.3333 84.3333 46.2667 83.8 45.6C83.4 44.8 83.1333 44.4667 83 44.6C82.6 45 63.8667 88.4 26.8 174.8C19.8667 191.333 15.8 199.667 14.6 199.8H14.4C13.7333 199.8 9.4 198.2 1.4 195C0.733334 194.733 0.400001 194.267 0.400001 193.6C0.400001 192 3.8 183.2 10.6 167.2C14.3333 158.533 19.4667 146.533 26 131.2C32.5333 115.733 39.3333 99.9333 46.4 83.8C49.2 77.2667 53.1333 68 58.2 56C63.4 43.8667 66.6 36.5333 67.8 34C76.3333 14 81.0667 3.06666 82 1.19999ZM90.8 135.6V117.6H112.4C126.4 117.6 133.8 117.8 134.6 118.2C135.133 118.467 137.667 124 142.2 134.8C143.267 137.467 148.6 149.867 158.2 172C164.2 185.867 167.2 193.067 167.2 193.6C167.2 193.867 164.867 195 160.2 197C155.533 199 152.8 200 152 200C151.733 200 151.4 199.733 151 199.2C150.6 198.8 149.8 197.4 148.6 195C147.533 192.6 146.133 189.467 144.4 185.6C142.8 181.733 140.333 175.867 137 168L123.2 136C119.6 136 114.2 135.933 107 135.8C99.8 135.667 94.4 135.6 90.8 135.6Z" fill="#333333"/>
</svg>
